<svg width="23" height="23" viewBox="0 0 23 23" fill="none" xmlns="http://www.w3.org/2000/svg">
<path d="M22.2346 8.38857H3.89528V21.9438H22.2346V8.38857Z" fill="white"/>
<path d="M0 11.5V23H23V0H0V11.5ZM18.5343 10.58C19.0852 10.7078 19.5859 10.996 19.9732 11.408C20.1864 11.63 20.3718 11.8771 20.5252 12.144C20.5252 12.1734 19.5316 12.845 18.9262 13.2204C18.9042 13.2351 18.8158 13.1394 18.7183 12.9941C18.6078 12.8034 18.4508 12.6438 18.2619 12.5302C18.073 12.4167 17.8585 12.3528 17.6382 12.3446C16.9409 12.2967 16.4919 12.6629 16.4956 13.2646C16.4898 13.4144 16.5241 13.563 16.595 13.6951C16.7477 14.0134 17.0329 14.203 17.9271 14.5894C19.5739 15.2978 20.2786 15.7651 20.7166 16.4294C21.206 17.1654 21.3146 18.354 20.9834 19.2335C20.6154 20.1903 19.7138 20.8398 18.4386 21.0551C17.8563 21.1218 17.2678 21.1156 16.687 21.0367C15.7967 20.89 14.9766 20.4625 14.3465 19.8168C14.1349 19.5831 13.7227 18.9741 13.7485 18.9299C13.8156 18.8801 13.8864 18.8352 13.9601 18.7956L14.812 18.3246L15.4726 17.9418L15.6106 18.1461C15.8435 18.4792 16.1398 18.7631 16.4827 18.9814C17.2187 19.3678 18.2234 19.3145 18.7202 18.8674C18.887 18.7035 18.991 18.4864 19.0142 18.2537C19.0374 18.0211 18.9783 17.7876 18.8471 17.5941C18.6631 17.3383 18.2951 17.123 17.2666 16.6741C16.0798 16.1626 15.5682 15.8461 15.1009 15.3419C14.8091 15.0092 14.5937 14.6167 14.4698 14.1919C14.3773 13.7066 14.3636 13.2096 14.4293 12.7199C14.674 11.5736 15.5333 10.7732 16.7882 10.5358C17.3693 10.4639 17.958 10.4801 18.5343 10.5837V10.58ZM13.1358 11.5442V12.4862H10.1494V20.9926H8.0316V12.4844H5.03792V11.5644C5.02859 11.2471 5.03597 10.9296 5.06 10.6131C5.07472 10.5966 6.9 10.5966 9.108 10.5966H13.1247L13.1358 11.5442Z" fill="#007ACC"/>
</svg>
