<svg width="42" height="24" viewBox="0 0 42 24" fill="none" xmlns="http://www.w3.org/2000/svg">
<path fill-rule="evenodd" clip-rule="evenodd" d="M24.1689 7.48007H27.9256V11.3032H29.8205C30.6849 11.3032 31.5825 11.137 32.4136 10.871C32.8126 10.7381 33.278 10.5386 33.6769 10.3059C33.145 9.60773 32.879 8.74337 32.8126 7.879C32.7128 6.71544 32.9455 5.18618 33.7434 4.28857L34.1423 3.82314L34.6078 4.18884C35.8046 5.15294 36.7687 6.44948 36.9682 7.97874C38.3977 7.54656 40.0599 7.64629 41.3232 8.37767L41.8219 8.67688L41.5559 9.20879C40.4921 11.27 38.2647 11.9349 36.1038 11.8019C32.8458 19.8804 25.7979 23.7035 17.2208 23.7035C12.7992 23.7035 8.74337 22.0413 6.41624 18.1184L6.38299 18.0519L6.05055 17.3538C5.25267 15.625 5.01996 13.7301 5.18618 11.8351L5.25267 11.27H8.44417V7.48007H12.2008V3.75666H19.6809V0H24.1689V7.48007Z" fill="#3A4D54"/>
<path d="M36.3365 8.9096C36.6025 6.94816 35.1397 5.4189 34.2088 4.68752C33.1782 5.88433 33.012 9.07582 34.641 10.4056C33.7102 11.2035 31.8152 11.9681 29.8205 11.9681H5.81783C5.61836 14.0293 5.98405 15.9242 6.81517 17.5532L7.08113 18.0519C7.24735 18.3511 7.44682 18.6171 7.64629 18.9163C8.64363 18.9828 9.54124 19.016 10.3724 18.9828C12.0013 18.9495 13.3311 18.75 14.3617 18.4176C14.5279 18.3511 14.6609 18.4508 14.7274 18.5838C14.7939 18.75 14.6942 18.883 14.5612 18.9495C14.4282 18.9828 14.2952 19.0492 14.129 19.0825C13.3311 19.3152 12.4668 19.4482 11.3697 19.5147H11.1702C10.738 19.5479 10.2726 19.5479 9.77395 19.5479C9.24203 19.5479 8.74336 19.5479 8.14496 19.5147C10.1396 21.7753 13.2646 23.1051 17.1875 23.1051C25.4987 23.1051 32.5466 19.4149 35.6384 11.1702C37.8658 11.403 39.9934 10.8378 40.9575 8.94284C39.4615 8.04523 37.4668 8.34444 36.3365 8.9096Z" fill="#00AADA"/>
<path d="M36.3365 8.9096C36.6025 6.94816 35.1397 5.4189 34.2088 4.68752C33.1782 5.88433 33.012 9.07582 34.641 10.4056C33.7102 11.2035 31.8152 11.9681 29.8205 11.9681H7.2141C7.11437 15.1264 8.27793 17.52 10.3724 18.9495C12.0013 18.9163 13.3311 18.7168 14.3617 18.3843C14.5279 18.3179 14.6609 18.4176 14.7274 18.5506C14.7939 18.7168 14.6942 18.8498 14.5612 18.9163C14.4282 18.9495 14.2952 19.016 14.129 19.0492C13.3311 19.282 12.4003 19.4482 11.3032 19.5147L11.27 19.4814C14.0958 20.9442 18.1849 20.9109 22.9056 19.1157C28.1583 17.0878 33.0785 13.2314 36.5027 8.84311C36.4362 8.87635 36.3697 8.87635 36.3365 8.9096Z" fill="#28B8EB"/>
<path d="M5.85107 14.4615C5.98405 15.5585 6.3165 16.5891 6.81517 17.5532L7.08113 18.0519C7.24735 18.3511 7.44682 18.6171 7.64629 18.9163C8.64363 18.9827 9.54124 19.016 10.3724 18.9827C12.0014 18.9495 13.3311 18.75 14.3617 18.4176C14.528 18.3511 14.6609 18.4508 14.7274 18.5838C14.7939 18.75 14.6942 18.883 14.5612 18.9495C14.4282 18.9827 14.2952 19.0492 14.129 19.0825C13.3311 19.3152 12.4003 19.4814 11.3032 19.5479H11.1702C10.7381 19.5812 10.2726 19.5812 9.8072 19.5812C9.27528 19.5812 8.74337 19.5812 8.17821 19.5479C10.1729 21.8085 13.3311 23.1383 17.254 23.1383C24.3684 23.1383 30.5519 20.4455 34.1423 14.4947H5.85107V14.4615Z" fill="#028BB8"/>
<path d="M7.44682 14.4615C7.879 16.3897 8.87634 17.9189 10.3724 18.9495C12.0013 18.9163 13.3311 18.7168 14.3617 18.3843C14.5279 18.3179 14.6609 18.4176 14.7274 18.5506C14.7939 18.7168 14.6942 18.8498 14.5612 18.9163C14.4282 18.9495 14.2952 19.016 14.129 19.0492C13.3311 19.2819 12.4003 19.4482 11.27 19.5147C14.0958 20.9774 18.1849 20.9442 22.8724 19.149C25.6982 18.0519 28.4575 16.4229 30.9176 14.4615H7.44682Z" fill="#019BC6"/>
<path fill-rule="evenodd" clip-rule="evenodd" d="M9.07581 8.11172H12.3338V11.3697H9.07581V8.11172ZM9.34177 8.37767H9.60773V11.0705H9.34177V8.37767ZM9.8072 8.37767H10.0732V11.0705H9.8072V8.37767ZM10.3059 8.37767H10.5718V11.0705H10.3059V8.37767ZM10.8045 8.37767H11.0705V11.0705H10.8045V8.37767ZM11.3032 8.37767H11.5692V11.0705H11.3032V8.37767ZM11.8019 8.37767H12.0678V11.0705H11.8019V8.37767ZM12.7992 4.38831H16.0572V7.64629H12.7992V4.38831ZM13.0984 4.65426H13.3644V7.34709H13.0984V4.65426ZM13.5639 4.65426H13.8298V7.34709H13.5639V4.65426ZM14.0625 4.65426H14.3285V7.34709H14.0625V4.65426ZM14.5612 4.65426H14.8272V7.34709H14.5612V4.65426ZM15.0266 4.65426H15.2926V7.34709H15.0266V4.65426ZM15.5253 4.65426H15.7912V7.34709H15.5253V4.65426Z" fill="#00ACD3"/>
<path fill-rule="evenodd" clip-rule="evenodd" d="M12.7992 8.11172H16.0572V11.3697H12.7992V8.11172ZM13.0984 8.37767H13.3644V11.0705H13.0984V8.37767ZM13.5639 8.37767H13.8298V11.0705H13.5639V8.37767ZM14.0625 8.37767H14.3285V11.0705H14.0625V8.37767ZM14.5612 8.37767H14.8272V11.0705H14.5612V8.37767ZM15.0266 8.37767H15.2926V11.0705H15.0266V8.37767ZM15.5253 8.37767H15.7913V11.0705H15.5253V8.37767Z" fill="#23C2EE"/>
<path fill-rule="evenodd" clip-rule="evenodd" d="M16.5559 8.11172H19.8139V11.3697H16.5559V8.11172ZM16.8218 8.37767H17.0878V11.0705H16.8218V8.37767ZM17.3205 8.37767H17.5865V11.0705H17.3205V8.37767ZM17.8192 8.37767H18.0851V11.0705H17.8192V8.37767ZM18.2846 8.37767H18.5506V11.0705H18.2846V8.37767ZM18.7833 8.37767H19.0492V11.0705H18.7833V8.37767ZM19.2819 8.37767H19.5479V11.0705H19.2819V8.37767Z" fill="#00ACD3"/>
<path fill-rule="evenodd" clip-rule="evenodd" d="M16.5559 4.38831H19.8139V7.64629H16.5559V4.38831ZM16.8218 4.65426H17.0878V7.34709H16.8218V4.65426ZM17.3205 4.65426H17.5865V7.34709H17.3205V4.65426ZM17.8192 4.65426H18.0851V7.34709H17.8192V4.65426ZM18.2846 4.65426H18.5506V7.34709H18.2846V4.65426ZM18.7833 4.65426H19.0492V7.34709H18.7833V4.65426ZM19.2819 4.65426H19.5479V7.34709H19.2819V4.65426ZM20.3125 8.11172H23.5705V11.3697H20.3125V8.11172ZM20.5785 8.37767H20.8444V11.0705H20.5785V8.37767ZM21.0772 8.37767H21.3431V11.0705H21.0772V8.37767ZM21.5426 8.37767H21.8085V11.0705H21.5426V8.37767ZM22.0413 8.37767H22.3072V11.0705H22.0413V8.37767ZM22.5399 8.37767H22.8059V11.0705H22.5399V8.37767ZM23.0386 8.37767H23.3046V11.0705H23.0386V8.37767Z" fill="#23C2EE"/>
<path fill-rule="evenodd" clip-rule="evenodd" d="M20.3125 4.38831H23.5705V7.64629H20.3125V4.38831ZM20.5785 4.65426H20.8445V7.34709H20.5785V4.65426ZM21.0772 4.65426H21.3431V7.34709H21.0772V4.65426ZM21.5426 4.65426H21.8086V7.34709H21.5426V4.65426ZM22.0413 4.65426H22.3072V7.34709H22.0413V4.65426ZM22.5399 4.65426H22.8059V7.34709H22.5399V4.65426ZM23.0386 4.65426H23.3046V7.34709H23.0386V4.65426Z" fill="#00ACD3"/>
<path fill-rule="evenodd" clip-rule="evenodd" d="M20.3125 0.631653H23.5705V3.88964H20.3125V0.631653ZM20.5785 0.89761H20.8445V3.59043H20.5785V0.89761ZM21.0772 0.89761H21.3431V3.59043H21.0772V0.89761ZM21.5426 0.89761H21.8086V3.59043H21.5426V0.89761ZM22.0413 0.89761H22.3072V3.59043H22.0413V0.89761ZM22.5399 0.89761H22.8059V3.59043H22.5399V0.89761ZM23.0386 0.89761H23.3046V3.59043H23.0386V0.89761Z" fill="#23C2EE"/>
<path fill-rule="evenodd" clip-rule="evenodd" d="M24.0692 8.11172H27.3272V11.3697H24.0692V8.11172ZM24.3351 8.37767H24.6011V11.0705H24.3351V8.37767ZM24.8006 8.37767H25.0665V11.0705H24.8006V8.37767ZM25.2992 8.37767H25.5652V11.0705H25.2992V8.37767ZM25.7979 8.37767H26.0639V11.0705H25.7979V8.37767ZM26.2966 8.37767H26.5625V11.0705H26.2966V8.37767ZM26.7953 8.37767H27.0612V11.0705H26.7953V8.37767Z" fill="#00ACD3"/>
<path fill-rule="evenodd" clip-rule="evenodd" d="M15.8577 16.6224C16.3564 16.6224 16.7553 17.0213 16.7553 17.52C16.7553 18.0186 16.3564 18.4176 15.8577 18.4176C15.3591 18.4176 14.9601 18.0186 14.9601 17.52C14.9601 17.0213 15.3591 16.6224 15.8577 16.6224Z" fill="#D4EEF1"/>
<path fill-rule="evenodd" clip-rule="evenodd" d="M15.8577 16.8883C15.9242 16.8883 16.024 16.8883 16.0905 16.9216C16.024 16.9548 15.9575 17.0545 15.9575 17.1543C15.9575 17.2873 16.0905 17.4202 16.2234 17.4202C16.3232 17.4202 16.4229 17.3538 16.4561 17.2873C16.4894 17.3538 16.4894 17.4535 16.4894 17.52C16.4894 17.8857 16.1902 18.1516 15.8577 18.1516C15.492 18.1516 15.2261 17.8524 15.2261 17.52C15.2261 17.1875 15.492 16.8883 15.8577 16.8883ZM0 14.7939H41.6889C40.7913 14.5612 38.8299 14.262 39.1291 13.0652C37.4668 14.9601 33.5107 14.395 32.4801 13.4641C31.3498 15.0931 24.8338 14.4615 24.4016 13.1982C23.0054 14.8604 18.6503 14.8604 17.254 13.1982C16.7886 14.4615 10.2726 15.0931 9.17555 13.4641C8.1782 14.395 4.18884 14.9601 2.5266 13.0652C2.89229 14.2287 0.897608 14.5612 0 14.7939Z" fill="#3A4D54"/>
<path d="M18.2514 23.1051C16.024 22.0413 14.8272 20.6117 14.129 19.0492C13.2979 19.282 12.3006 19.4482 11.1702 19.5147C10.7381 19.5479 10.2726 19.5479 9.8072 19.5479C9.24204 19.5479 8.67688 19.5479 8.07848 19.5147C10.0732 21.5094 12.5998 23.0719 17.2208 23.1051H18.2514Z" fill="#BFDBE0"/>
<path d="M14.9601 20.4788C14.6609 20.0466 14.3617 19.5479 14.129 19.0492C13.2979 19.282 12.3006 19.4482 11.1702 19.5147C11.9349 19.9136 13.0652 20.3125 14.9601 20.4788Z" fill="#D4EEF1"/>
</svg>
