<svg width="20" height="24" viewBox="0 0 20 24" fill="none" xmlns="http://www.w3.org/2000/svg">
<path d="M17.6812 18.0337C17.8994 17.5654 18 16.9092 18 16C18 12.7534 16.5044 10.8804 15.3027 9.375C14.5752 8.46338 14 7.74316 14 7L14.001 6.76709C14.0088 5.38672 14.0249 2.51367 12.499 0.979004C11.853 0.32959 11.0122 0 10 0C7.89941 0 6.5 1.02051 6.5 6C6.5 7.37061 5.92334 8.49316 5.31299 9.68164C5.04541 10.2026 4.76855 10.7417 4.53662 11.3115C4.07471 12.4473 3 15.2271 3 16.5C3 16.5811 3.01953 16.6606 3.05713 16.7324L6.59619 23.481C6.67236 23.626 6.81738 23.7207 6.97998 23.7412C7 23.7437 7.02002 23.7451 7.04004 23.7451C7.18213 23.7451 7.32129 23.6826 7.41699 23.5757C7.63916 23.3281 9.11182 23 10 23H13.3921C13.5225 23 13.6475 22.9492 13.7407 22.8584L17.8486 18.8584C18.0469 18.6655 18.0508 18.3491 17.8584 18.1514C17.8066 18.0981 17.7461 18.0591 17.6812 18.0337Z" fill="#1A1A1A"/>
<path opacity="0.2" d="M5.31299 9.93164C5.92334 8.74316 6.5 7.62061 6.5 6.25C6.5 1.27051 7.89941 0.25 10 0.25C11.0122 0.25 11.853 0.57959 12.499 1.229C13.8328 2.57037 13.9883 4.9339 14.0012 6.42981C14.002 4.96265 13.9144 2.40253 12.499 0.979004C11.853 0.32959 11.0122 0 10 0C7.89941 0 6.5 1.02051 6.5 6C6.5 7.37061 5.92334 8.49316 5.31299 9.68164C5.04541 10.2026 4.76855 10.7417 4.53662 11.3115C4.07471 12.4473 3 15.2271 3 16.5C3 16.5228 3.013 16.5428 3.01605 16.5652C3.10077 15.2291 4.09442 12.6489 4.53662 11.5615C4.76855 10.9917 5.04541 10.4526 5.31299 9.93164Z" fill="white"/>
<path d="M17.8584 18.4014C17.9204 18.4651 17.9545 18.5424 17.9758 18.6227C18.0175 18.4595 17.9843 18.2808 17.8584 18.1514C17.8281 18.1202 17.7902 18.1041 17.7548 18.0826C17.7304 18.1498 17.7095 18.2229 17.6812 18.2837C17.7461 18.3091 17.8066 18.3481 17.8584 18.4014Z" fill="#0099D8"/>
<path opacity="0.2" d="M14 7.25C14 7.99316 14.5752 8.71338 15.3027 9.625C16.4932 11.1164 17.9677 12.9729 17.9951 16.1643C17.9959 16.1076 18 16.0588 18 16C18 12.7534 16.5044 10.8804 15.3027 9.375C14.577 8.46558 14.0038 7.74658 14.001 7.00537C14.001 7.00885 14.001 7.01361 14.001 7.01709L14 7.25Z" fill="white"/>
<path d="M14 7C14 7.00183 14.001 7.00354 14.001 7.00537C14.002 6.83405 14.0029 6.64105 14.0012 6.42981C14.0011 6.54437 14.0015 6.66711 14.001 6.76709L14 7Z" fill="#0099D8"/>
<path d="M14.1294 16.8118C14.1174 14.3771 13.7866 11.6384 11.8627 7.70587C10.9107 8.34961 9.1629 8.85881 8.95294 8.85881C8.5744 8.85881 7.74793 8.58861 7.14069 8.05254C6.89105 8.78899 6.54547 9.47088 6.20264 10.1387C5.94482 10.6401 5.67822 11.1592 5.46338 11.6885C4.85901 13.1733 4.16882 15.1281 4.02954 16.1669C4.45251 16.4488 4.7475 17.0588 5.07324 17.7402C5.41064 18.4463 5.79297 19.2466 6.28564 19.5898C7.1872 20.2175 7.6546 21.1128 7.7771 21.9264C8.12018 21.9605 8.55261 21.9902 9.04395 21.9902C10.2639 21.9902 11.9177 21.7425 13.1412 21C13.2098 19.6772 13.4422 17.5555 14.1294 16.8118Z" fill="white"/>
<path d="M17.9951 16.1643C17.9828 16.9843 17.8853 17.5957 17.6812 18.0337C17.7081 18.0443 17.7297 18.0673 17.7548 18.0826C17.9184 17.6317 18 17.0412 18 16.25C18 16.2199 17.9953 16.1942 17.9951 16.1643Z" fill="#0099D8"/>
<path opacity="0.1" d="M7.77707 21.9264C8.12015 21.9605 8.55259 21.9902 9.04392 21.9902C10.2638 21.9902 11.9177 21.7425 13.1411 21V20.75C11.9177 21.4925 10.2638 21.7402 9.04392 21.7402C8.55259 21.7402 8.04462 21.706 7.70154 21.6719" fill="black"/>
<path opacity="0.3" d="M13.7438 22.6084C13.6506 22.6992 13.5256 22.75 13.3952 22.75H10.0031C9.11493 22.75 7.64227 23.0781 7.4201 23.3257C7.3244 23.4326 7.18524 23.4951 7.04315 23.4951C7.02313 23.4951 7.00311 23.4937 6.98309 23.4912C6.8205 23.4707 6.67548 23.376 6.5993 23.231L3.06024 16.4824C3.0332 16.4308 3.02698 16.3726 3.01917 16.3152C3.01538 16.3748 3.00311 16.4457 3.00311 16.5C3.00311 16.5811 3.02264 16.6606 3.06024 16.7324L6.5993 23.481C6.67548 23.626 6.8205 23.7207 6.98309 23.7412C7.00311 23.7437 7.02313 23.7451 7.04315 23.7451C7.18524 23.7451 7.3244 23.6826 7.4201 23.5757C7.64227 23.3281 9.11493 23 10.0031 23H13.3952C13.5256 23 13.6506 22.9492 13.7438 22.8584L17.8517 18.8584C17.9861 18.7277 18.0237 18.5415 17.9789 18.3727C17.9569 18.4589 17.9202 18.5418 17.8517 18.6084L13.7438 22.6084Z" fill="black"/>
<path d="M18.9263 19.0742C18.7192 18.9385 18.5049 18.7979 18.3535 18.6465C18.2651 18.5581 18.3057 18.1494 18.3272 17.9297C18.3687 17.5078 18.4116 17.0723 18.1279 16.7593C18.021 16.6411 17.8247 16.5 17.5 16.5C17.2324 16.5 17.0371 16.7119 17.0254 16.979C17.0251 16.9863 17.0281 16.9928 17.0281 17H15C15 16.7236 14.7764 16.5 14.5 16.5C13.0171 16.5 13 21.9448 12.9941 22.064C12.9663 22.3623 12.9009 23.062 13.3486 23.5532C13.6187 23.8496 14.0059 24 14.5 24C15.7979 24 16.4273 23.3311 17.0357 22.6846C17.1382 22.5752 17.2432 22.4639 17.3535 22.3535C17.6069 22.1001 18.1025 21.9194 18.54 21.7598C19.2578 21.4976 20 21.2266 20 20.5C20 19.7788 19.4048 19.3882 18.9263 19.0742Z" fill="#FDB515"/>
<path d="M6.28564 19.5898C5.79297 19.2466 5.41064 18.4463 5.07324 17.7402C4.62695 16.8066 4.24121 16 3.5 16C2.56445 16 2.35986 16.8408 2.25049 17.2925C2.22021 17.417 2.17432 17.6045 2.16992 17.6265C2.0957 17.6724 1.81641 17.7275 1.63184 17.7642C1.02148 17.8853 0 18.0874 0 19C0 19.2656 0.0395508 19.4912 0.0830078 19.7261C0.160156 20.1421 0.23291 20.5347 0.0161133 21.375C0.00537108 21.4155 0 21.458 0 21.5C0 22.7021 1.86719 22.8579 2.98291 22.9507C3.16846 22.9663 3.32275 22.978 3.42187 22.9937C3.57568 23.0181 3.89795 23.1665 4.20947 23.3101C4.87598 23.6177 5.70557 24 6.5 24C7.07129 24 7.52832 23.6309 7.72266 23.0127C8.0249 22.0493 7.62451 20.522 6.28564 19.5898Z" fill="#FDB515"/>
<path opacity="0.2" d="M1.5531 18.0142C1.74402 17.9775 2.03302 17.9224 2.1098 17.8765C2.11432 17.8545 2.1618 17.667 2.19312 17.5425C2.30627 17.0908 2.51794 16.25 3.48584 16.25C4.25269 16.25 4.65179 17.0566 5.11353 17.9902C5.46259 18.6963 5.85815 19.4966 6.36786 19.8398C6.87561 20.1815 7.25024 20.6039 7.50909 21.0484C7.26239 20.5136 6.86755 19.9949 6.28564 19.5898C5.79297 19.2466 5.41064 18.4463 5.07324 17.7402C4.62695 16.8066 4.24121 16 3.5 16C2.56445 16 2.35986 16.8408 2.25049 17.2925C2.22021 17.417 2.17432 17.6045 2.16992 17.6265C2.0957 17.6724 1.81641 17.7275 1.63184 17.7642C1.10175 17.8693 0.263428 18.0369 0.0515747 18.6768C0.382812 18.2401 1.08435 18.1041 1.5531 18.0142Z" fill="white"/>
<path d="M17.5 15.5C17.4042 15.5 17.3198 15.5341 17.2438 15.5807L13.9051 10.1175C13.5406 9.08747 13.0742 7.99481 12.4443 6.771C12.3183 6.52637 12.0171 6.4292 11.771 6.55518C11.5259 6.68164 11.4292 6.9834 11.5556 7.22901C13.813 11.6157 14 14.354 14.001 16.9722C13.9951 17.0772 13.9595 18.0137 14.498 18.5835C14.7558 18.856 15.102 19 15.5 19L15.6763 19.001C15.7324 19.0015 15.789 19.002 15.8467 19.002C16.355 19.002 16.9048 18.9634 17.3349 18.5366C17.7949 18.0806 18 17.2983 18 16C18 15.7236 17.7764 15.5 17.5 15.5Z" fill="#1A1A1A"/>
<path opacity="0.3" d="M17.335 18.2866C16.9048 18.7134 16.355 18.752 15.8467 18.752C15.7891 18.752 15.7324 18.7515 15.6763 18.751L15.5 18.75C15.1021 18.75 14.7559 18.606 14.498 18.3335C14.0948 17.9069 14.0135 17.2749 14.0006 16.9401C14.0006 16.9507 14.001 16.9615 14.001 16.9722C13.9951 17.0771 13.9595 18.0137 14.498 18.5835C14.7559 18.856 15.1021 19 15.5 19L15.6763 19.001C15.7324 19.0015 15.7891 19.002 15.8467 19.002C16.355 19.002 16.9048 18.9634 17.335 18.5366C17.7949 18.0806 18 17.2983 18 16C18 15.9839 17.9923 15.9704 17.9908 15.9547C17.9682 17.1215 17.7682 17.8571 17.335 18.2866Z" fill="black"/>
<path d="M11 3.0415C10.4204 3.0415 10 3.66357 10 4.521C10 5.37793 10.4204 6 11 6C11.5796 6 12 5.37793 12 4.521C12 3.66357 11.5796 3.0415 11 3.0415Z" fill="white"/>
<path d="M11 5.77647C11.2505 5.77647 11.4536 5.37879 11.4536 4.88824C11.4536 4.39768 11.2505 4 11 4C10.7495 4 10.5464 4.39768 10.5464 4.88824C10.5464 5.37879 10.7495 5.77647 11 5.77647Z" fill="black"/>
<path d="M8 3.0415C7.42041 3.0415 7 3.66357 7 4.521C7 5.37793 7.42041 6 8 6C8.57959 6 9 5.37793 9 4.521C9 3.66357 8.57959 3.0415 8 3.0415Z" fill="white"/>
<path d="M11.8019 7.74249C10.8388 8.36841 9.15881 8.85883 8.95294 8.85883C8.5744 8.85883 7.74792 8.58862 7.14069 8.05255L13.9222 14.8341C13.7612 12.8981 13.2535 10.6957 11.8019 7.74249Z" fill="url(#paint0_linear_2_128)"/>
<path d="M7.99997 5.74118C8.2455 5.74118 8.44453 5.3514 8.44453 4.87059C8.44453 4.38978 8.2455 4 7.99997 4C7.75445 4 7.55542 4.38978 7.55542 4.87059C7.55542 5.3514 7.75445 5.74118 7.99997 5.74118Z" fill="black"/>
<path d="M9.59815 5.00977C9.56592 5.00342 9.53272 5 9.5 5C8.4248 5 6.5 6.0083 6.5 7C6.5 7.93701 8.39111 9 9 9C9.29541 9 12.5 7.88721 12.5 7C12.5 5.69189 10.2788 5.146 9.59815 5.00977Z" fill="#FDB515"/>
<path d="M9.59815 5.00977C9.56592 5.00342 9.53272 5 9.5 5C8.4248 5 6.5 6.0083 6.5 7C6.5 7.93701 8.39111 9 9 9C9.29541 9 12.5 7.88721 12.5 7C12.5 5.69189 10.2788 5.146 9.59815 5.00977Z" fill="#FDB515"/>
<path opacity="0.1" d="M18.54 21.5098C18.1025 21.6694 17.6069 21.8501 17.3535 22.1035C17.2431 22.2139 17.1382 22.3252 17.0356 22.4346C16.4272 23.0811 15.7978 23.75 14.5 23.75C14.0058 23.75 13.6186 23.5996 13.3486 23.3032C13.0555 22.9816 12.9895 22.5786 12.9818 22.2494C12.9602 22.5948 12.9726 23.1407 13.3486 23.5532C13.6186 23.8496 14.0058 24 14.5 24C15.7978 24 16.4272 23.3311 17.0356 22.6846C17.1382 22.5752 17.2431 22.4639 17.3535 22.3535C17.6069 22.1001 18.1025 21.9194 18.54 21.7598C19.2578 21.4976 20 21.2266 20 20.5C20 20.4637 19.9827 20.4376 19.9798 20.403C19.8798 21.0129 19.2034 21.2675 18.54 21.5098Z" fill="black"/>
<path opacity="0.1" d="M7.72266 22.7627C7.52832 23.3809 7.07129 23.75 6.5 23.75C5.70557 23.75 4.87598 23.3677 4.20947 23.0601C3.89795 22.9165 3.57568 22.7681 3.42188 22.7437C3.32275 22.728 3.16846 22.7163 2.98291 22.7007C1.9024 22.6108 0.132446 22.4531 0.020813 21.3519C0.0186157 21.3606 0.0183716 21.3663 0.0161133 21.375C0.00537108 21.4155 0 21.458 0 21.5C0 22.7021 1.86719 22.8579 2.98291 22.9507C3.16846 22.9663 3.32275 22.978 3.42188 22.9937C3.57568 23.0181 3.89795 23.1665 4.20947 23.3101C4.87598 23.6177 5.70557 24 6.5 24C7.07129 24 7.52832 23.6309 7.72266 23.0127C7.8017 22.7607 7.82965 22.4693 7.80835 22.1609C7.80292 22.3751 7.77966 22.5809 7.72266 22.7627Z" fill="black"/>
<path opacity="0.1" d="M8.98907 8.75C8.42859 8.75 6.81781 7.86877 6.50134 6.99402C6.50134 6.99603 6.5 6.99799 6.5 7C6.5 7.93701 8.39111 9 9 9C9.29541 9 12.5 7.88721 12.5 7C12.5 6.98065 12.4895 6.96509 12.4885 6.94604C12.014 7.80133 9.26483 8.75 8.98907 8.75Z" fill="black"/>
<path d="M18.9263 19.0742C18.7192 18.9385 18.5049 18.7979 18.3535 18.6465C18.2651 18.5581 18.3057 18.1494 18.3271 17.9297C18.3687 17.5078 18.4116 17.0723 18.1279 16.7593C18.0917 16.7192 18.0338 16.6816 17.9712 16.6463C17.9083 17.5567 17.7104 18.1643 17.335 18.5366C16.9048 18.9634 16.355 19.002 15.8467 19.002C15.7891 19.002 15.7324 19.0015 15.6763 19.001L15.5 19C15.1021 19 14.7559 18.856 14.498 18.5835L17.9188 22.0043C18.1185 21.9149 18.335 21.8346 18.54 21.7598C19.2578 21.4976 20 21.2266 20 20.5C20 19.7788 19.4048 19.3882 18.9263 19.0742Z" fill="url(#paint1_linear_2_128)"/>
<path d="M18.9263 19.0742C18.7192 18.9385 18.5049 18.7979 18.3535 18.6465C18.2651 18.5581 18.3057 18.1494 18.3272 17.9297C18.3687 17.5078 18.4116 17.0723 18.1279 16.7593C18.0938 16.7216 18.0332 16.6852 17.9796 16.6481C17.993 16.4476 18 16.2325 18 16C18 12.7534 16.5044 10.8804 15.3027 9.375C14.5752 8.46338 14 7.74316 14 7L14.001 6.76709C14.0088 5.38672 14.0249 2.51367 12.499 0.979004C11.853 0.32959 11.0122 0 10 0C7.89942 0 6.5 1.02051 6.5 6C6.5 7.37061 5.92334 8.49316 5.31299 9.68164C5.04541 10.2026 4.76856 10.7417 4.53662 11.3115C4.11786 12.3412 3.2038 14.7108 3.03516 16.0951C2.49469 16.3225 2.33838 16.9296 2.25049 17.2925C2.22022 17.417 2.17432 17.6045 2.16992 17.6265C2.0957 17.6724 1.81641 17.7275 1.63184 17.7642C1.02148 17.8853 0 18.0874 0 19C0 19.2656 0.0395508 19.4912 0.0830078 19.7261C0.160156 20.1421 0.23291 20.5347 0.0161133 21.375C0.00537108 21.4155 0 21.458 0 21.5C0 22.7021 1.86719 22.8579 2.98291 22.9507C3.16846 22.9663 3.32275 22.978 3.42188 22.9937C3.57568 23.0181 3.89795 23.1665 4.20947 23.3101C4.87598 23.6177 5.70557 24 6.5 24C6.84192 24 7.13373 23.8546 7.36194 23.6158C7.3794 23.601 7.40161 23.5929 7.41699 23.5757C7.63916 23.3281 9.11182 23 10 23H13.0607C13.1158 23.1927 13.1952 23.3849 13.3486 23.5532C13.6187 23.8496 14.0059 24 14.5 24C15.7979 24 16.4272 23.3311 17.0356 22.6846C17.1382 22.5752 17.2432 22.4639 17.3535 22.3535C17.6069 22.1001 18.1025 21.9194 18.54 21.7598C19.2578 21.4976 20 21.2266 20 20.5C20 19.7788 19.4048 19.3882 18.9263 19.0742Z" fill="url(#paint2_linear_2_128)"/>
<defs>
<linearGradient id="paint0_linear_2_128" x1="8.3835" y1="6.80974" x2="15.1651" y2="13.5913" gradientUnits="userSpaceOnUse">
<stop stop-opacity="0.1"/>
<stop offset="1" stop-opacity="0"/>
</linearGradient>
<linearGradient id="paint1_linear_2_128" x1="15.8615" y1="17.22" x2="19.7588" y2="21.1173" gradientUnits="userSpaceOnUse">
<stop stop-opacity="0.1"/>
<stop offset="1" stop-opacity="0"/>
</linearGradient>
<linearGradient id="paint2_linear_2_128" x1="3.24505" y1="10.0597" x2="21.0856" y2="18.3789" gradientUnits="userSpaceOnUse">
<stop stop-color="white" stop-opacity="0.2"/>
<stop offset="1" stop-color="white" stop-opacity="0"/>
</linearGradient>
</defs>
</svg>
