<svg width="795" height="795" viewBox="0 0 795 795" fill="none" xmlns="http://www.w3.org/2000/svg">
<path fill-rule="evenodd" clip-rule="evenodd" d="M567.935 38.2899C516.284 13.7376 458.495 0 397.5 0C291.095 0 194.452 41.8091 123.108 109.896C47.2574 182.283 702.186 102.105 567.935 38.2899V38.2899Z" fill="#FCC397"/>
<path fill-rule="evenodd" clip-rule="evenodd" d="M708.04 149.341C708.493 149.908 675.62 193.847 576.815 206.321C377.387 231.499 35.0012 234.159 35.5153 233.028C56.5925 186.773 86.3247 144.977 123.108 109.895C166.139 123.331 212.975 126.678 257.278 118.513C330.429 105.131 395.51 62.8631 467.868 45.6381C499.986 37.924 534.974 35.6688 567.929 38.287C622.689 64.3127 670.556 102.494 708.04 149.341V149.341Z" fill="#FC9F95"/>
<path fill-rule="evenodd" clip-rule="evenodd" d="M790.15 335.233C790.402 336.834 340.44 379.13 121.206 366.802C49.7776 362.785 7.62401 319.601 8.10366 317.242C14.0519 288.23 23.2479 259.98 35.5179 233.025C98.8529 198.358 173.371 178.35 245.626 179.14C336.237 180.068 425.129 210.278 515.74 208.025C583.034 206.313 650.861 184.838 708.04 149.341C750.178 202.002 779.201 265.618 790.15 335.233V335.233Z" fill="#F77C88"/>
<path fill-rule="evenodd" clip-rule="evenodd" d="M795 397.5C795 399.702 794.947 404.096 794.947 404.096C794.947 404.096 669.968 435.618 509.012 433.736C283.571 431.102 0.00800574 394.739 0.0133057 394.074C0.219401 368.188 2.94408 342.383 8.14881 317.025C62.1638 350.351 127.666 366.675 190.713 359.804C240.848 354.371 288.468 335.821 334.899 316.079C381.327 296.336 427.493 275.136 476.568 263.741C548.661 247.046 625.782 252.876 694.698 280.039C728.225 293.262 761.493 312.271 790.145 335.191C793.384 355.802 795.007 376.636 795 397.5V397.5Z" fill="#F25192"/>
<path fill-rule="evenodd" clip-rule="evenodd" d="M344.198 526.565C224.94 548.587 20.2752 523.187 19.7584 521.615C6.94035 482.565 0 440.843 0 397.5C0 396.355 0.00529999 395.213 0.01325 394.071C18.1181 379.713 39.2651 366.914 59.9112 356.965C110.971 332.188 168.908 321.853 225.393 327.418C281.215 332.983 334.523 353.653 386.113 375.913C429.573 394.667 472.757 414.926 517.871 428.924C522.291 430.296 475.476 502.321 344.198 526.565V526.565Z" fill="#D34CA3"/>
<path fill-rule="evenodd" clip-rule="evenodd" d="M780.658 503.685C772.332 517.746 693.131 565.126 585.772 573.24C443.621 583.983 275.693 541.013 331.398 519.146C419.1 484.696 495.16 422.818 585.772 396.981C653.461 377.59 728.496 380.656 794.947 404.088C794.422 437.757 789.62 471.224 780.658 503.683V503.685Z" fill="#9A50A5"/>
<path fill-rule="evenodd" clip-rule="evenodd" d="M742.191 595.612C673.553 714.777 175.74 744.661 103.019 664.501C65.9983 623.696 37.3439 575.164 19.7611 521.613C80.894 486.673 152.455 471.833 221.241 481.24C310.265 493.43 390.03 543.118 477.867 562.463C548.765 578.098 623.9 573.195 692.156 548.55C723.013 537.322 753.61 522.278 780.661 503.678C771.769 535.823 758.843 566.713 742.191 595.612V595.612Z" fill="#59569E"/>
<path fill-rule="evenodd" clip-rule="evenodd" d="M742.763 594.615C674.266 714.329 545.306 795 397.5 795C280.722 795 175.703 744.642 102.979 664.458C115.047 669.069 128.546 673.06 140.916 676.545C210.1 695.625 284.573 695.095 353.359 674.822C397.407 661.837 438.811 641.167 482.067 625.532C564.606 595.768 655.456 585.287 742.763 594.615Z" fill="#39477F"/>
</svg>
